<mxfile host="app.diagrams.net" modified="2023-07-27T16:23:28.633Z" agent="Mozilla/5.0 (Windows NT 10.0; Win64; x64) AppleWebKit/537.36 (KHTML, like Gecko) Chrome/114.0.0.0 Safari/537.36" etag="LcLzC5mbYnPGCRTR82Ru" version="21.6.2" type="device">
  <diagram id="C5RBs43oDa-KdzZeNtuy" name="Page-1">
    <mxGraphModel dx="2901" dy="2236" grid="1" gridSize="10" guides="1" tooltips="1" connect="1" arrows="1" fold="1" page="1" pageScale="1" pageWidth="827" pageHeight="1169" math="0" shadow="0">
      <root>
        <mxCell id="WIyWlLk6GJQsqaUBKTNV-0" />
        <mxCell id="WIyWlLk6GJQsqaUBKTNV-1" parent="WIyWlLk6GJQsqaUBKTNV-0" />
        <mxCell id="GjBpAneU1MjriTZgQyeh-2" style="edgeStyle=orthogonalEdgeStyle;rounded=0;orthogonalLoop=1;jettySize=auto;html=1;exitX=0.5;exitY=1;exitDx=0;exitDy=0;entryX=0.5;entryY=0;entryDx=0;entryDy=0;" parent="WIyWlLk6GJQsqaUBKTNV-1" source="WIyWlLk6GJQsqaUBKTNV-3" target="WIyWlLk6GJQsqaUBKTNV-6" edge="1">
          <mxGeometry relative="1" as="geometry" />
        </mxCell>
        <mxCell id="WIyWlLk6GJQsqaUBKTNV-3" value="Prompt user for input" style="rounded=1;whiteSpace=wrap;html=1;fontSize=12;glass=0;strokeWidth=1;shadow=0;" parent="WIyWlLk6GJQsqaUBKTNV-1" vertex="1">
          <mxGeometry x="718" y="70" width="180" height="60" as="geometry" />
        </mxCell>
        <mxCell id="iXyWQFxBQs2oQhP1uB22-5" style="edgeStyle=orthogonalEdgeStyle;rounded=0;orthogonalLoop=1;jettySize=auto;html=1;exitX=0;exitY=0.5;exitDx=0;exitDy=0;entryX=0.5;entryY=0;entryDx=0;entryDy=0;" edge="1" parent="WIyWlLk6GJQsqaUBKTNV-1" source="WIyWlLk6GJQsqaUBKTNV-6" target="iXyWQFxBQs2oQhP1uB22-0">
          <mxGeometry relative="1" as="geometry" />
        </mxCell>
        <mxCell id="iXyWQFxBQs2oQhP1uB22-11" value="User enters 1" style="edgeLabel;html=1;align=center;verticalAlign=middle;resizable=0;points=[];" vertex="1" connectable="0" parent="iXyWQFxBQs2oQhP1uB22-5">
          <mxGeometry x="0.7848" y="-1" relative="1" as="geometry">
            <mxPoint as="offset" />
          </mxGeometry>
        </mxCell>
        <mxCell id="iXyWQFxBQs2oQhP1uB22-6" style="edgeStyle=orthogonalEdgeStyle;rounded=0;orthogonalLoop=1;jettySize=auto;html=1;exitX=0;exitY=1;exitDx=0;exitDy=0;entryX=0.5;entryY=0;entryDx=0;entryDy=0;" edge="1" parent="WIyWlLk6GJQsqaUBKTNV-1" source="WIyWlLk6GJQsqaUBKTNV-6" target="iXyWQFxBQs2oQhP1uB22-1">
          <mxGeometry relative="1" as="geometry" />
        </mxCell>
        <mxCell id="iXyWQFxBQs2oQhP1uB22-12" value="User enters 2" style="edgeLabel;html=1;align=center;verticalAlign=middle;resizable=0;points=[];" vertex="1" connectable="0" parent="iXyWQFxBQs2oQhP1uB22-6">
          <mxGeometry x="0.5487" y="-1" relative="1" as="geometry">
            <mxPoint as="offset" />
          </mxGeometry>
        </mxCell>
        <mxCell id="iXyWQFxBQs2oQhP1uB22-7" style="edgeStyle=orthogonalEdgeStyle;rounded=0;orthogonalLoop=1;jettySize=auto;html=1;exitX=1;exitY=1;exitDx=0;exitDy=0;entryX=0.5;entryY=0;entryDx=0;entryDy=0;" edge="1" parent="WIyWlLk6GJQsqaUBKTNV-1" source="WIyWlLk6GJQsqaUBKTNV-6" target="iXyWQFxBQs2oQhP1uB22-2">
          <mxGeometry relative="1" as="geometry" />
        </mxCell>
        <mxCell id="iXyWQFxBQs2oQhP1uB22-13" value="User enters 3" style="edgeLabel;html=1;align=center;verticalAlign=middle;resizable=0;points=[];" vertex="1" connectable="0" parent="iXyWQFxBQs2oQhP1uB22-7">
          <mxGeometry x="0.4862" relative="1" as="geometry">
            <mxPoint as="offset" />
          </mxGeometry>
        </mxCell>
        <mxCell id="iXyWQFxBQs2oQhP1uB22-8" style="edgeStyle=orthogonalEdgeStyle;rounded=0;orthogonalLoop=1;jettySize=auto;html=1;exitX=1;exitY=0;exitDx=0;exitDy=0;entryX=1;entryY=0.5;entryDx=0;entryDy=0;" edge="1" parent="WIyWlLk6GJQsqaUBKTNV-1" source="WIyWlLk6GJQsqaUBKTNV-6" target="WIyWlLk6GJQsqaUBKTNV-3">
          <mxGeometry relative="1" as="geometry">
            <Array as="points">
              <mxPoint x="918" y="225" />
              <mxPoint x="918" y="100" />
            </Array>
          </mxGeometry>
        </mxCell>
        <mxCell id="iXyWQFxBQs2oQhP1uB22-10" value="Bad Input" style="edgeLabel;html=1;align=center;verticalAlign=middle;resizable=0;points=[];" vertex="1" connectable="0" parent="iXyWQFxBQs2oQhP1uB22-8">
          <mxGeometry x="0.2492" y="-1" relative="1" as="geometry">
            <mxPoint as="offset" />
          </mxGeometry>
        </mxCell>
        <mxCell id="iXyWQFxBQs2oQhP1uB22-9" style="edgeStyle=orthogonalEdgeStyle;rounded=0;orthogonalLoop=1;jettySize=auto;html=1;exitX=1;exitY=0.5;exitDx=0;exitDy=0;entryX=0.5;entryY=0;entryDx=0;entryDy=0;" edge="1" parent="WIyWlLk6GJQsqaUBKTNV-1" source="WIyWlLk6GJQsqaUBKTNV-6" target="iXyWQFxBQs2oQhP1uB22-3">
          <mxGeometry relative="1" as="geometry" />
        </mxCell>
        <mxCell id="iXyWQFxBQs2oQhP1uB22-14" value="User enters 4" style="edgeLabel;html=1;align=center;verticalAlign=middle;resizable=0;points=[];" vertex="1" connectable="0" parent="iXyWQFxBQs2oQhP1uB22-9">
          <mxGeometry x="0.7788" y="-3" relative="1" as="geometry">
            <mxPoint as="offset" />
          </mxGeometry>
        </mxCell>
        <mxCell id="iXyWQFxBQs2oQhP1uB22-15" style="edgeStyle=orthogonalEdgeStyle;rounded=0;orthogonalLoop=1;jettySize=auto;html=1;exitX=0.5;exitY=1;exitDx=0;exitDy=0;entryX=0.5;entryY=0;entryDx=0;entryDy=0;" edge="1" parent="WIyWlLk6GJQsqaUBKTNV-1" source="WIyWlLk6GJQsqaUBKTNV-6" target="iXyWQFxBQs2oQhP1uB22-4">
          <mxGeometry relative="1" as="geometry" />
        </mxCell>
        <mxCell id="iXyWQFxBQs2oQhP1uB22-86" value="User enters 5" style="edgeLabel;html=1;align=center;verticalAlign=middle;resizable=0;points=[];" vertex="1" connectable="0" parent="iXyWQFxBQs2oQhP1uB22-15">
          <mxGeometry x="-0.9211" y="-2" relative="1" as="geometry">
            <mxPoint as="offset" />
          </mxGeometry>
        </mxCell>
        <mxCell id="WIyWlLk6GJQsqaUBKTNV-6" value="User enters input" style="rhombus;whiteSpace=wrap;html=1;shadow=0;fontFamily=Helvetica;fontSize=12;align=center;strokeWidth=1;spacing=6;spacingTop=-4;" parent="WIyWlLk6GJQsqaUBKTNV-1" vertex="1">
          <mxGeometry x="745.5" y="200" width="125" height="100" as="geometry" />
        </mxCell>
        <mxCell id="iXyWQFxBQs2oQhP1uB22-19" style="edgeStyle=orthogonalEdgeStyle;rounded=0;orthogonalLoop=1;jettySize=auto;html=1;exitX=0.5;exitY=1;exitDx=0;exitDy=0;entryX=0.5;entryY=0;entryDx=0;entryDy=0;" edge="1" parent="WIyWlLk6GJQsqaUBKTNV-1" source="iXyWQFxBQs2oQhP1uB22-0" target="iXyWQFxBQs2oQhP1uB22-16">
          <mxGeometry relative="1" as="geometry" />
        </mxCell>
        <mxCell id="iXyWQFxBQs2oQhP1uB22-0" value="Add Book" style="rounded=1;whiteSpace=wrap;html=1;fontSize=12;glass=0;strokeWidth=1;shadow=0;" vertex="1" parent="WIyWlLk6GJQsqaUBKTNV-1">
          <mxGeometry x="190" y="370" width="180" height="60" as="geometry" />
        </mxCell>
        <mxCell id="iXyWQFxBQs2oQhP1uB22-39" style="edgeStyle=orthogonalEdgeStyle;rounded=0;orthogonalLoop=1;jettySize=auto;html=1;exitX=0.5;exitY=1;exitDx=0;exitDy=0;entryX=0.5;entryY=0;entryDx=0;entryDy=0;" edge="1" parent="WIyWlLk6GJQsqaUBKTNV-1" source="iXyWQFxBQs2oQhP1uB22-1" target="iXyWQFxBQs2oQhP1uB22-37">
          <mxGeometry relative="1" as="geometry" />
        </mxCell>
        <mxCell id="iXyWQFxBQs2oQhP1uB22-1" value="Review Progress" style="rounded=1;whiteSpace=wrap;html=1;fontSize=12;glass=0;strokeWidth=1;shadow=0;" vertex="1" parent="WIyWlLk6GJQsqaUBKTNV-1">
          <mxGeometry x="538" y="370" width="180" height="60" as="geometry" />
        </mxCell>
        <mxCell id="iXyWQFxBQs2oQhP1uB22-45" style="edgeStyle=orthogonalEdgeStyle;rounded=0;orthogonalLoop=1;jettySize=auto;html=1;exitX=0.5;exitY=1;exitDx=0;exitDy=0;entryX=0.5;entryY=0;entryDx=0;entryDy=0;" edge="1" parent="WIyWlLk6GJQsqaUBKTNV-1" source="iXyWQFxBQs2oQhP1uB22-2" target="iXyWQFxBQs2oQhP1uB22-43">
          <mxGeometry relative="1" as="geometry" />
        </mxCell>
        <mxCell id="iXyWQFxBQs2oQhP1uB22-2" value="Update Progress" style="rounded=1;whiteSpace=wrap;html=1;fontSize=12;glass=0;strokeWidth=1;shadow=0;" vertex="1" parent="WIyWlLk6GJQsqaUBKTNV-1">
          <mxGeometry x="880" y="370" width="180" height="60" as="geometry" />
        </mxCell>
        <mxCell id="iXyWQFxBQs2oQhP1uB22-71" style="edgeStyle=orthogonalEdgeStyle;rounded=0;orthogonalLoop=1;jettySize=auto;html=1;exitX=0.5;exitY=1;exitDx=0;exitDy=0;entryX=0.5;entryY=0;entryDx=0;entryDy=0;" edge="1" parent="WIyWlLk6GJQsqaUBKTNV-1" source="iXyWQFxBQs2oQhP1uB22-3" target="iXyWQFxBQs2oQhP1uB22-69">
          <mxGeometry relative="1" as="geometry" />
        </mxCell>
        <mxCell id="iXyWQFxBQs2oQhP1uB22-3" value="Remove Book" style="rounded=1;whiteSpace=wrap;html=1;fontSize=12;glass=0;strokeWidth=1;shadow=0;" vertex="1" parent="WIyWlLk6GJQsqaUBKTNV-1">
          <mxGeometry x="1510" y="370" width="180" height="60" as="geometry" />
        </mxCell>
        <mxCell id="iXyWQFxBQs2oQhP1uB22-88" style="edgeStyle=orthogonalEdgeStyle;rounded=0;orthogonalLoop=1;jettySize=auto;html=1;exitX=0.5;exitY=1;exitDx=0;exitDy=0;entryX=0.5;entryY=0;entryDx=0;entryDy=0;" edge="1" parent="WIyWlLk6GJQsqaUBKTNV-1" source="iXyWQFxBQs2oQhP1uB22-4" target="iXyWQFxBQs2oQhP1uB22-87">
          <mxGeometry relative="1" as="geometry" />
        </mxCell>
        <mxCell id="iXyWQFxBQs2oQhP1uB22-4" value="Logout" style="rounded=1;whiteSpace=wrap;html=1;fontSize=12;glass=0;strokeWidth=1;shadow=0;" vertex="1" parent="WIyWlLk6GJQsqaUBKTNV-1">
          <mxGeometry x="718" y="1440" width="180" height="60" as="geometry" />
        </mxCell>
        <mxCell id="iXyWQFxBQs2oQhP1uB22-18" style="edgeStyle=orthogonalEdgeStyle;rounded=0;orthogonalLoop=1;jettySize=auto;html=1;exitX=0.5;exitY=1;exitDx=0;exitDy=0;entryX=0.5;entryY=0;entryDx=0;entryDy=0;" edge="1" parent="WIyWlLk6GJQsqaUBKTNV-1" source="iXyWQFxBQs2oQhP1uB22-16" target="iXyWQFxBQs2oQhP1uB22-17">
          <mxGeometry relative="1" as="geometry" />
        </mxCell>
        <mxCell id="iXyWQFxBQs2oQhP1uB22-16" value="Prompt user for book to add" style="rounded=1;whiteSpace=wrap;html=1;fontSize=12;glass=0;strokeWidth=1;shadow=0;" vertex="1" parent="WIyWlLk6GJQsqaUBKTNV-1">
          <mxGeometry x="190" y="480" width="180" height="60" as="geometry" />
        </mxCell>
        <mxCell id="iXyWQFxBQs2oQhP1uB22-21" style="edgeStyle=orthogonalEdgeStyle;rounded=0;orthogonalLoop=1;jettySize=auto;html=1;exitX=0.5;exitY=1;exitDx=0;exitDy=0;entryX=0.5;entryY=0;entryDx=0;entryDy=0;" edge="1" parent="WIyWlLk6GJQsqaUBKTNV-1" source="iXyWQFxBQs2oQhP1uB22-17" target="iXyWQFxBQs2oQhP1uB22-20">
          <mxGeometry relative="1" as="geometry" />
        </mxCell>
        <mxCell id="iXyWQFxBQs2oQhP1uB22-17" value="User enters book name" style="rhombus;whiteSpace=wrap;html=1;shadow=0;fontFamily=Helvetica;fontSize=12;align=center;strokeWidth=1;spacing=6;spacingTop=-4;" vertex="1" parent="WIyWlLk6GJQsqaUBKTNV-1">
          <mxGeometry x="217.5" y="580" width="125" height="100" as="geometry" />
        </mxCell>
        <mxCell id="iXyWQFxBQs2oQhP1uB22-28" style="edgeStyle=orthogonalEdgeStyle;rounded=0;orthogonalLoop=1;jettySize=auto;html=1;exitX=0.5;exitY=1;exitDx=0;exitDy=0;entryX=0.5;entryY=0;entryDx=0;entryDy=0;" edge="1" parent="WIyWlLk6GJQsqaUBKTNV-1" source="iXyWQFxBQs2oQhP1uB22-20" target="iXyWQFxBQs2oQhP1uB22-27">
          <mxGeometry relative="1" as="geometry" />
        </mxCell>
        <mxCell id="iXyWQFxBQs2oQhP1uB22-29" value="Book not already owned" style="edgeLabel;html=1;align=center;verticalAlign=middle;resizable=0;points=[];" vertex="1" connectable="0" parent="iXyWQFxBQs2oQhP1uB22-28">
          <mxGeometry x="0.0333" y="-1" relative="1" as="geometry">
            <mxPoint as="offset" />
          </mxGeometry>
        </mxCell>
        <mxCell id="iXyWQFxBQs2oQhP1uB22-31" style="edgeStyle=orthogonalEdgeStyle;rounded=0;orthogonalLoop=1;jettySize=auto;html=1;exitX=0;exitY=0.5;exitDx=0;exitDy=0;entryX=0.75;entryY=1;entryDx=0;entryDy=0;" edge="1" parent="WIyWlLk6GJQsqaUBKTNV-1" source="iXyWQFxBQs2oQhP1uB22-20" target="iXyWQFxBQs2oQhP1uB22-30">
          <mxGeometry relative="1" as="geometry" />
        </mxCell>
        <mxCell id="iXyWQFxBQs2oQhP1uB22-33" value="Book already&lt;br&gt;owned" style="edgeLabel;html=1;align=center;verticalAlign=middle;resizable=0;points=[];" vertex="1" connectable="0" parent="iXyWQFxBQs2oQhP1uB22-31">
          <mxGeometry x="-0.4927" relative="1" as="geometry">
            <mxPoint as="offset" />
          </mxGeometry>
        </mxCell>
        <mxCell id="iXyWQFxBQs2oQhP1uB22-20" value="Check if user already has book" style="rounded=1;whiteSpace=wrap;html=1;fontSize=12;glass=0;strokeWidth=1;shadow=0;" vertex="1" parent="WIyWlLk6GJQsqaUBKTNV-1">
          <mxGeometry x="190" y="730" width="180" height="60" as="geometry" />
        </mxCell>
        <mxCell id="iXyWQFxBQs2oQhP1uB22-32" style="edgeStyle=orthogonalEdgeStyle;rounded=0;orthogonalLoop=1;jettySize=auto;html=1;exitX=0;exitY=0.5;exitDx=0;exitDy=0;entryX=0.25;entryY=1;entryDx=0;entryDy=0;" edge="1" parent="WIyWlLk6GJQsqaUBKTNV-1" source="iXyWQFxBQs2oQhP1uB22-27" target="iXyWQFxBQs2oQhP1uB22-30">
          <mxGeometry relative="1" as="geometry" />
        </mxCell>
        <mxCell id="iXyWQFxBQs2oQhP1uB22-27" value="Add book to database" style="rounded=1;whiteSpace=wrap;html=1;fontSize=12;glass=0;strokeWidth=1;shadow=0;" vertex="1" parent="WIyWlLk6GJQsqaUBKTNV-1">
          <mxGeometry x="190" y="850" width="180" height="60" as="geometry" />
        </mxCell>
        <mxCell id="iXyWQFxBQs2oQhP1uB22-35" style="edgeStyle=orthogonalEdgeStyle;rounded=0;orthogonalLoop=1;jettySize=auto;html=1;exitX=0.5;exitY=0;exitDx=0;exitDy=0;entryX=0.25;entryY=0;entryDx=0;entryDy=0;" edge="1" parent="WIyWlLk6GJQsqaUBKTNV-1" source="iXyWQFxBQs2oQhP1uB22-30" target="WIyWlLk6GJQsqaUBKTNV-3">
          <mxGeometry relative="1" as="geometry" />
        </mxCell>
        <mxCell id="iXyWQFxBQs2oQhP1uB22-30" value="Return to main menu" style="rounded=1;whiteSpace=wrap;html=1;fontSize=12;glass=0;strokeWidth=1;shadow=0;" vertex="1" parent="WIyWlLk6GJQsqaUBKTNV-1">
          <mxGeometry x="-50" y="600" width="180" height="60" as="geometry" />
        </mxCell>
        <mxCell id="iXyWQFxBQs2oQhP1uB22-40" style="edgeStyle=orthogonalEdgeStyle;rounded=0;orthogonalLoop=1;jettySize=auto;html=1;exitX=0.5;exitY=1;exitDx=0;exitDy=0;entryX=0.5;entryY=0;entryDx=0;entryDy=0;" edge="1" parent="WIyWlLk6GJQsqaUBKTNV-1" source="iXyWQFxBQs2oQhP1uB22-37" target="iXyWQFxBQs2oQhP1uB22-38">
          <mxGeometry relative="1" as="geometry" />
        </mxCell>
        <mxCell id="iXyWQFxBQs2oQhP1uB22-37" value="Fetch book information from database" style="rounded=1;whiteSpace=wrap;html=1;fontSize=12;glass=0;strokeWidth=1;shadow=0;" vertex="1" parent="WIyWlLk6GJQsqaUBKTNV-1">
          <mxGeometry x="538" y="480" width="180" height="60" as="geometry" />
        </mxCell>
        <mxCell id="iXyWQFxBQs2oQhP1uB22-41" style="edgeStyle=orthogonalEdgeStyle;rounded=0;orthogonalLoop=1;jettySize=auto;html=1;exitX=0;exitY=0.5;exitDx=0;exitDy=0;entryX=0;entryY=0.75;entryDx=0;entryDy=0;" edge="1" parent="WIyWlLk6GJQsqaUBKTNV-1" source="iXyWQFxBQs2oQhP1uB22-38" target="WIyWlLk6GJQsqaUBKTNV-3">
          <mxGeometry relative="1" as="geometry" />
        </mxCell>
        <mxCell id="iXyWQFxBQs2oQhP1uB22-38" value="Display information to user" style="rounded=1;whiteSpace=wrap;html=1;fontSize=12;glass=0;strokeWidth=1;shadow=0;" vertex="1" parent="WIyWlLk6GJQsqaUBKTNV-1">
          <mxGeometry x="538" y="590" width="180" height="60" as="geometry" />
        </mxCell>
        <mxCell id="iXyWQFxBQs2oQhP1uB22-42" style="edgeStyle=orthogonalEdgeStyle;rounded=0;orthogonalLoop=1;jettySize=auto;html=1;exitX=0.5;exitY=1;exitDx=0;exitDy=0;entryX=0.5;entryY=0;entryDx=0;entryDy=0;" edge="1" parent="WIyWlLk6GJQsqaUBKTNV-1" source="iXyWQFxBQs2oQhP1uB22-43" target="iXyWQFxBQs2oQhP1uB22-44">
          <mxGeometry relative="1" as="geometry" />
        </mxCell>
        <mxCell id="iXyWQFxBQs2oQhP1uB22-43" value="Fetch book information from database" style="rounded=1;whiteSpace=wrap;html=1;fontSize=12;glass=0;strokeWidth=1;shadow=0;" vertex="1" parent="WIyWlLk6GJQsqaUBKTNV-1">
          <mxGeometry x="880" y="480" width="180" height="60" as="geometry" />
        </mxCell>
        <mxCell id="iXyWQFxBQs2oQhP1uB22-47" style="edgeStyle=orthogonalEdgeStyle;rounded=0;orthogonalLoop=1;jettySize=auto;html=1;exitX=0.5;exitY=1;exitDx=0;exitDy=0;entryX=0.5;entryY=0;entryDx=0;entryDy=0;" edge="1" parent="WIyWlLk6GJQsqaUBKTNV-1" source="iXyWQFxBQs2oQhP1uB22-44" target="iXyWQFxBQs2oQhP1uB22-46">
          <mxGeometry relative="1" as="geometry" />
        </mxCell>
        <mxCell id="iXyWQFxBQs2oQhP1uB22-44" value="Display information to user" style="rounded=1;whiteSpace=wrap;html=1;fontSize=12;glass=0;strokeWidth=1;shadow=0;" vertex="1" parent="WIyWlLk6GJQsqaUBKTNV-1">
          <mxGeometry x="880" y="590" width="180" height="60" as="geometry" />
        </mxCell>
        <mxCell id="iXyWQFxBQs2oQhP1uB22-49" style="edgeStyle=orthogonalEdgeStyle;rounded=0;orthogonalLoop=1;jettySize=auto;html=1;exitX=0.5;exitY=1;exitDx=0;exitDy=0;entryX=0.5;entryY=0;entryDx=0;entryDy=0;" edge="1" parent="WIyWlLk6GJQsqaUBKTNV-1" source="iXyWQFxBQs2oQhP1uB22-46" target="iXyWQFxBQs2oQhP1uB22-48">
          <mxGeometry relative="1" as="geometry" />
        </mxCell>
        <mxCell id="iXyWQFxBQs2oQhP1uB22-46" value="Prompt user for book to update" style="rounded=1;whiteSpace=wrap;html=1;fontSize=12;glass=0;strokeWidth=1;shadow=0;" vertex="1" parent="WIyWlLk6GJQsqaUBKTNV-1">
          <mxGeometry x="880" y="700" width="180" height="60" as="geometry" />
        </mxCell>
        <mxCell id="iXyWQFxBQs2oQhP1uB22-51" style="edgeStyle=orthogonalEdgeStyle;rounded=0;orthogonalLoop=1;jettySize=auto;html=1;exitX=0.5;exitY=1;exitDx=0;exitDy=0;entryX=0.5;entryY=0;entryDx=0;entryDy=0;" edge="1" parent="WIyWlLk6GJQsqaUBKTNV-1" source="iXyWQFxBQs2oQhP1uB22-48" target="iXyWQFxBQs2oQhP1uB22-50">
          <mxGeometry relative="1" as="geometry" />
        </mxCell>
        <mxCell id="iXyWQFxBQs2oQhP1uB22-48" value="User enters book name" style="rhombus;whiteSpace=wrap;html=1;shadow=0;fontFamily=Helvetica;fontSize=12;align=center;strokeWidth=1;spacing=6;spacingTop=-4;" vertex="1" parent="WIyWlLk6GJQsqaUBKTNV-1">
          <mxGeometry x="907.5" y="800" width="125" height="100" as="geometry" />
        </mxCell>
        <mxCell id="iXyWQFxBQs2oQhP1uB22-57" style="edgeStyle=orthogonalEdgeStyle;rounded=0;orthogonalLoop=1;jettySize=auto;html=1;exitX=0.5;exitY=1;exitDx=0;exitDy=0;entryX=0.5;entryY=0;entryDx=0;entryDy=0;" edge="1" parent="WIyWlLk6GJQsqaUBKTNV-1" source="iXyWQFxBQs2oQhP1uB22-50" target="iXyWQFxBQs2oQhP1uB22-56">
          <mxGeometry relative="1" as="geometry" />
        </mxCell>
        <mxCell id="iXyWQFxBQs2oQhP1uB22-58" value="User has book" style="edgeLabel;html=1;align=center;verticalAlign=middle;resizable=0;points=[];" vertex="1" connectable="0" parent="iXyWQFxBQs2oQhP1uB22-57">
          <mxGeometry x="-0.08" y="2" relative="1" as="geometry">
            <mxPoint as="offset" />
          </mxGeometry>
        </mxCell>
        <mxCell id="iXyWQFxBQs2oQhP1uB22-59" style="edgeStyle=orthogonalEdgeStyle;rounded=0;orthogonalLoop=1;jettySize=auto;html=1;exitX=1;exitY=0.5;exitDx=0;exitDy=0;entryX=0.25;entryY=1;entryDx=0;entryDy=0;" edge="1" parent="WIyWlLk6GJQsqaUBKTNV-1" source="iXyWQFxBQs2oQhP1uB22-50" target="iXyWQFxBQs2oQhP1uB22-54">
          <mxGeometry relative="1" as="geometry" />
        </mxCell>
        <mxCell id="iXyWQFxBQs2oQhP1uB22-60" value="User doesn&#39;t have book" style="edgeLabel;html=1;align=center;verticalAlign=middle;resizable=0;points=[];" vertex="1" connectable="0" parent="iXyWQFxBQs2oQhP1uB22-59">
          <mxGeometry x="-0.5242" y="-1" relative="1" as="geometry">
            <mxPoint as="offset" />
          </mxGeometry>
        </mxCell>
        <mxCell id="iXyWQFxBQs2oQhP1uB22-50" value="Check if user has book" style="rounded=1;whiteSpace=wrap;html=1;fontSize=12;glass=0;strokeWidth=1;shadow=0;" vertex="1" parent="WIyWlLk6GJQsqaUBKTNV-1">
          <mxGeometry x="880" y="950" width="180" height="60" as="geometry" />
        </mxCell>
        <mxCell id="iXyWQFxBQs2oQhP1uB22-55" style="edgeStyle=orthogonalEdgeStyle;rounded=0;orthogonalLoop=1;jettySize=auto;html=1;exitX=0.5;exitY=0;exitDx=0;exitDy=0;entryX=1;entryY=0.25;entryDx=0;entryDy=0;" edge="1" parent="WIyWlLk6GJQsqaUBKTNV-1" source="iXyWQFxBQs2oQhP1uB22-54" target="WIyWlLk6GJQsqaUBKTNV-3">
          <mxGeometry relative="1" as="geometry" />
        </mxCell>
        <mxCell id="iXyWQFxBQs2oQhP1uB22-54" value="Return to main menu" style="rounded=1;whiteSpace=wrap;html=1;fontSize=12;glass=0;strokeWidth=1;shadow=0;" vertex="1" parent="WIyWlLk6GJQsqaUBKTNV-1">
          <mxGeometry x="1230" y="610" width="180" height="60" as="geometry" />
        </mxCell>
        <mxCell id="iXyWQFxBQs2oQhP1uB22-62" style="edgeStyle=orthogonalEdgeStyle;rounded=0;orthogonalLoop=1;jettySize=auto;html=1;exitX=0.5;exitY=1;exitDx=0;exitDy=0;entryX=0.5;entryY=0;entryDx=0;entryDy=0;" edge="1" parent="WIyWlLk6GJQsqaUBKTNV-1" source="iXyWQFxBQs2oQhP1uB22-56" target="iXyWQFxBQs2oQhP1uB22-61">
          <mxGeometry relative="1" as="geometry" />
        </mxCell>
        <mxCell id="iXyWQFxBQs2oQhP1uB22-56" value="Prompt user for progress status" style="rounded=1;whiteSpace=wrap;html=1;fontSize=12;glass=0;strokeWidth=1;shadow=0;" vertex="1" parent="WIyWlLk6GJQsqaUBKTNV-1">
          <mxGeometry x="880" y="1060" width="180" height="60" as="geometry" />
        </mxCell>
        <mxCell id="iXyWQFxBQs2oQhP1uB22-63" style="edgeStyle=orthogonalEdgeStyle;rounded=0;orthogonalLoop=1;jettySize=auto;html=1;exitX=1;exitY=0.5;exitDx=0;exitDy=0;entryX=0.5;entryY=1;entryDx=0;entryDy=0;" edge="1" parent="WIyWlLk6GJQsqaUBKTNV-1" source="iXyWQFxBQs2oQhP1uB22-61" target="iXyWQFxBQs2oQhP1uB22-54">
          <mxGeometry relative="1" as="geometry" />
        </mxCell>
        <mxCell id="iXyWQFxBQs2oQhP1uB22-64" value="Bad input" style="edgeLabel;html=1;align=center;verticalAlign=middle;resizable=0;points=[];" vertex="1" connectable="0" parent="iXyWQFxBQs2oQhP1uB22-63">
          <mxGeometry x="-0.6234" relative="1" as="geometry">
            <mxPoint x="1" as="offset" />
          </mxGeometry>
        </mxCell>
        <mxCell id="iXyWQFxBQs2oQhP1uB22-66" style="edgeStyle=orthogonalEdgeStyle;rounded=0;orthogonalLoop=1;jettySize=auto;html=1;exitX=0.5;exitY=1;exitDx=0;exitDy=0;entryX=0.5;entryY=0;entryDx=0;entryDy=0;" edge="1" parent="WIyWlLk6GJQsqaUBKTNV-1" source="iXyWQFxBQs2oQhP1uB22-61" target="iXyWQFxBQs2oQhP1uB22-65">
          <mxGeometry relative="1" as="geometry" />
        </mxCell>
        <mxCell id="iXyWQFxBQs2oQhP1uB22-61" value="User enters progress" style="rhombus;whiteSpace=wrap;html=1;shadow=0;fontFamily=Helvetica;fontSize=12;align=center;strokeWidth=1;spacing=6;spacingTop=-4;" vertex="1" parent="WIyWlLk6GJQsqaUBKTNV-1">
          <mxGeometry x="907.5" y="1160" width="125" height="100" as="geometry" />
        </mxCell>
        <mxCell id="iXyWQFxBQs2oQhP1uB22-67" style="edgeStyle=orthogonalEdgeStyle;rounded=0;orthogonalLoop=1;jettySize=auto;html=1;exitX=1;exitY=0.5;exitDx=0;exitDy=0;entryX=0.75;entryY=1;entryDx=0;entryDy=0;" edge="1" parent="WIyWlLk6GJQsqaUBKTNV-1" source="iXyWQFxBQs2oQhP1uB22-65" target="iXyWQFxBQs2oQhP1uB22-54">
          <mxGeometry relative="1" as="geometry" />
        </mxCell>
        <mxCell id="iXyWQFxBQs2oQhP1uB22-65" value="Set book progress to entered value" style="rounded=1;whiteSpace=wrap;html=1;fontSize=12;glass=0;strokeWidth=1;shadow=0;" vertex="1" parent="WIyWlLk6GJQsqaUBKTNV-1">
          <mxGeometry x="880" y="1300" width="180" height="60" as="geometry" />
        </mxCell>
        <mxCell id="iXyWQFxBQs2oQhP1uB22-68" style="edgeStyle=orthogonalEdgeStyle;rounded=0;orthogonalLoop=1;jettySize=auto;html=1;exitX=0.5;exitY=1;exitDx=0;exitDy=0;entryX=0.5;entryY=0;entryDx=0;entryDy=0;" edge="1" parent="WIyWlLk6GJQsqaUBKTNV-1" source="iXyWQFxBQs2oQhP1uB22-69" target="iXyWQFxBQs2oQhP1uB22-70">
          <mxGeometry relative="1" as="geometry" />
        </mxCell>
        <mxCell id="iXyWQFxBQs2oQhP1uB22-69" value="Fetch book information from database" style="rounded=1;whiteSpace=wrap;html=1;fontSize=12;glass=0;strokeWidth=1;shadow=0;" vertex="1" parent="WIyWlLk6GJQsqaUBKTNV-1">
          <mxGeometry x="1510" y="480" width="180" height="60" as="geometry" />
        </mxCell>
        <mxCell id="iXyWQFxBQs2oQhP1uB22-73" style="edgeStyle=orthogonalEdgeStyle;rounded=0;orthogonalLoop=1;jettySize=auto;html=1;exitX=0.5;exitY=1;exitDx=0;exitDy=0;entryX=0.5;entryY=0;entryDx=0;entryDy=0;" edge="1" parent="WIyWlLk6GJQsqaUBKTNV-1" source="iXyWQFxBQs2oQhP1uB22-70" target="iXyWQFxBQs2oQhP1uB22-72">
          <mxGeometry relative="1" as="geometry" />
        </mxCell>
        <mxCell id="iXyWQFxBQs2oQhP1uB22-70" value="Display information to user" style="rounded=1;whiteSpace=wrap;html=1;fontSize=12;glass=0;strokeWidth=1;shadow=0;" vertex="1" parent="WIyWlLk6GJQsqaUBKTNV-1">
          <mxGeometry x="1510" y="590" width="180" height="60" as="geometry" />
        </mxCell>
        <mxCell id="iXyWQFxBQs2oQhP1uB22-75" style="edgeStyle=orthogonalEdgeStyle;rounded=0;orthogonalLoop=1;jettySize=auto;html=1;exitX=0.5;exitY=1;exitDx=0;exitDy=0;entryX=0.5;entryY=0;entryDx=0;entryDy=0;" edge="1" parent="WIyWlLk6GJQsqaUBKTNV-1" source="iXyWQFxBQs2oQhP1uB22-72" target="iXyWQFxBQs2oQhP1uB22-74">
          <mxGeometry relative="1" as="geometry" />
        </mxCell>
        <mxCell id="iXyWQFxBQs2oQhP1uB22-72" value="Prompt user for book to remove" style="rounded=1;whiteSpace=wrap;html=1;fontSize=12;glass=0;strokeWidth=1;shadow=0;" vertex="1" parent="WIyWlLk6GJQsqaUBKTNV-1">
          <mxGeometry x="1510" y="700" width="180" height="60" as="geometry" />
        </mxCell>
        <mxCell id="iXyWQFxBQs2oQhP1uB22-77" style="edgeStyle=orthogonalEdgeStyle;rounded=0;orthogonalLoop=1;jettySize=auto;html=1;exitX=0.5;exitY=1;exitDx=0;exitDy=0;entryX=0.5;entryY=0;entryDx=0;entryDy=0;" edge="1" parent="WIyWlLk6GJQsqaUBKTNV-1" source="iXyWQFxBQs2oQhP1uB22-74" target="iXyWQFxBQs2oQhP1uB22-76">
          <mxGeometry relative="1" as="geometry" />
        </mxCell>
        <mxCell id="iXyWQFxBQs2oQhP1uB22-74" value="User enters book name" style="rhombus;whiteSpace=wrap;html=1;shadow=0;fontFamily=Helvetica;fontSize=12;align=center;strokeWidth=1;spacing=6;spacingTop=-4;" vertex="1" parent="WIyWlLk6GJQsqaUBKTNV-1">
          <mxGeometry x="1537.5" y="800" width="125" height="100" as="geometry" />
        </mxCell>
        <mxCell id="iXyWQFxBQs2oQhP1uB22-79" style="edgeStyle=orthogonalEdgeStyle;rounded=0;orthogonalLoop=1;jettySize=auto;html=1;exitX=0.5;exitY=1;exitDx=0;exitDy=0;entryX=0.5;entryY=0;entryDx=0;entryDy=0;" edge="1" parent="WIyWlLk6GJQsqaUBKTNV-1" source="iXyWQFxBQs2oQhP1uB22-76" target="iXyWQFxBQs2oQhP1uB22-78">
          <mxGeometry relative="1" as="geometry" />
        </mxCell>
        <mxCell id="iXyWQFxBQs2oQhP1uB22-83" value="User has book" style="edgeLabel;html=1;align=center;verticalAlign=middle;resizable=0;points=[];" vertex="1" connectable="0" parent="iXyWQFxBQs2oQhP1uB22-79">
          <mxGeometry x="-0.16" relative="1" as="geometry">
            <mxPoint as="offset" />
          </mxGeometry>
        </mxCell>
        <mxCell id="iXyWQFxBQs2oQhP1uB22-81" style="edgeStyle=orthogonalEdgeStyle;rounded=0;orthogonalLoop=1;jettySize=auto;html=1;exitX=1;exitY=0.5;exitDx=0;exitDy=0;entryX=0.25;entryY=1;entryDx=0;entryDy=0;" edge="1" parent="WIyWlLk6GJQsqaUBKTNV-1" source="iXyWQFxBQs2oQhP1uB22-76" target="iXyWQFxBQs2oQhP1uB22-80">
          <mxGeometry relative="1" as="geometry" />
        </mxCell>
        <mxCell id="iXyWQFxBQs2oQhP1uB22-84" value="User doesn&#39;t have book" style="edgeLabel;html=1;align=center;verticalAlign=middle;resizable=0;points=[];" vertex="1" connectable="0" parent="iXyWQFxBQs2oQhP1uB22-81">
          <mxGeometry x="-0.7032" y="-1" relative="1" as="geometry">
            <mxPoint as="offset" />
          </mxGeometry>
        </mxCell>
        <mxCell id="iXyWQFxBQs2oQhP1uB22-76" value="Check if user has book" style="rounded=1;whiteSpace=wrap;html=1;fontSize=12;glass=0;strokeWidth=1;shadow=0;" vertex="1" parent="WIyWlLk6GJQsqaUBKTNV-1">
          <mxGeometry x="1510" y="950" width="180" height="60" as="geometry" />
        </mxCell>
        <mxCell id="iXyWQFxBQs2oQhP1uB22-82" style="edgeStyle=orthogonalEdgeStyle;rounded=0;orthogonalLoop=1;jettySize=auto;html=1;exitX=1;exitY=0.5;exitDx=0;exitDy=0;entryX=0.75;entryY=1;entryDx=0;entryDy=0;" edge="1" parent="WIyWlLk6GJQsqaUBKTNV-1" source="iXyWQFxBQs2oQhP1uB22-78" target="iXyWQFxBQs2oQhP1uB22-80">
          <mxGeometry relative="1" as="geometry" />
        </mxCell>
        <mxCell id="iXyWQFxBQs2oQhP1uB22-78" value="Remove book from user&#39;s books" style="rounded=1;whiteSpace=wrap;html=1;fontSize=12;glass=0;strokeWidth=1;shadow=0;" vertex="1" parent="WIyWlLk6GJQsqaUBKTNV-1">
          <mxGeometry x="1510" y="1060" width="180" height="60" as="geometry" />
        </mxCell>
        <mxCell id="iXyWQFxBQs2oQhP1uB22-85" style="edgeStyle=orthogonalEdgeStyle;rounded=0;orthogonalLoop=1;jettySize=auto;html=1;exitX=0.5;exitY=0;exitDx=0;exitDy=0;entryX=0.75;entryY=0;entryDx=0;entryDy=0;" edge="1" parent="WIyWlLk6GJQsqaUBKTNV-1" source="iXyWQFxBQs2oQhP1uB22-80" target="WIyWlLk6GJQsqaUBKTNV-3">
          <mxGeometry relative="1" as="geometry" />
        </mxCell>
        <mxCell id="iXyWQFxBQs2oQhP1uB22-80" value="Return to main menu" style="rounded=1;whiteSpace=wrap;html=1;fontSize=12;glass=0;strokeWidth=1;shadow=0;" vertex="1" parent="WIyWlLk6GJQsqaUBKTNV-1">
          <mxGeometry x="1800" y="610" width="180" height="60" as="geometry" />
        </mxCell>
        <mxCell id="iXyWQFxBQs2oQhP1uB22-87" value="End of program" style="rounded=1;whiteSpace=wrap;html=1;fontSize=12;glass=0;strokeWidth=1;shadow=0;" vertex="1" parent="WIyWlLk6GJQsqaUBKTNV-1">
          <mxGeometry x="718" y="1550" width="180" height="60" as="geometry" />
        </mxCell>
        <mxCell id="iXyWQFxBQs2oQhP1uB22-91" style="edgeStyle=orthogonalEdgeStyle;rounded=0;orthogonalLoop=1;jettySize=auto;html=1;exitX=0.5;exitY=1;exitDx=0;exitDy=0;" edge="1" parent="WIyWlLk6GJQsqaUBKTNV-1" source="iXyWQFxBQs2oQhP1uB22-90" target="WIyWlLk6GJQsqaUBKTNV-3">
          <mxGeometry relative="1" as="geometry" />
        </mxCell>
        <mxCell id="iXyWQFxBQs2oQhP1uB22-90" value="Start of program" style="rounded=1;whiteSpace=wrap;html=1;fontSize=12;glass=0;strokeWidth=1;shadow=0;" vertex="1" parent="WIyWlLk6GJQsqaUBKTNV-1">
          <mxGeometry x="718" y="-60" width="180" height="60" as="geometry" />
        </mxCell>
      </root>
    </mxGraphModel>
  </diagram>
</mxfile>
